<svg width="100%" height="100%" viewBox="0 0 289 489" version="1.1" xmlns="http://www.w3.org/2000/svg" xmlns:xlink="http://www.w3.org/1999/xlink" xml:space="preserve" xmlns:serif="http://www.serif.com/" style="fill-rule:evenodd;clip-rule:evenodd;stroke-linejoin:round;stroke-miterlimit:2;">
    <g transform="matrix(1,0,0,1,-595.606557,-6390.167754)">
        <g transform="matrix(1,0,0,1,0,-0.720773)">
            <g transform="matrix(1.517708,0,0,1.517708,-1465.363264,-3500.903047)">
                <g transform="matrix(1.08566,0,0,1.08566,383.067531,5358.050589)">
                    <path d="M1018.371,1364.667L962.541,1364.667C951.122,1364.367 937.28,1359.181 929.547,1351.669C921.815,1344.158 897.961,1320.084 897.961,1320.084L917.289,1300.756C917.289,1300.756 941.699,1325.819 946.549,1330.016C951.399,1334.212 957.619,1337.333 962.541,1337.333L991,1337.333L991,1310L949.128,1310L949.128,1282.667L1032,1282.667C1039.543,1282.667 1045.667,1276.543 1045.667,1269C1045.667,1261.457 1039.543,1255.333 1032,1255.333L949.128,1255.333L949.128,1228L991,1228L991,1195.884L930.162,1215.652L921.715,1189.656L991,1167.144L991,1150.045L949.128,1150.045L949.128,1122.711L1032,1122.711C1039.543,1122.711 1045.667,1116.588 1045.667,1109.045C1045.667,1101.502 1039.543,1095.378 1032,1095.378L1032,1068.045C1054.629,1068.045 1073,1086.416 1073,1109.045C1073,1131.673 1054.629,1150.045 1032,1150.045L1018.333,1150.045L1018.333,1228L1032,1228C1054.629,1228 1073,1246.371 1073,1269C1073,1291.629 1054.629,1310 1032,1310L1018.333,1310L1018.333,1337.333L1018.371,1337.333L1018.371,1364.667Z" style="fill:rgb(255,0,0);"/>
                </g>
                <g transform="matrix(0.456156,0.456156,-0.456156,0.456156,1247.216864,5332.632824)">
                    <rect x="1501" y="1212" width="46" height="46" style="fill:rgb(255,0,0);"/>
                </g>
            </g>
        </g>
    </g>
</svg>
